<svg width="31" height="32" viewBox="0 0 31 32" fill="none" xmlns="http://www.w3.org/2000/svg">
<path d="M25.3636 0.846191H5.07273C2.27114 0.846191 0 3.11921 0 5.92311V26.2308C0 29.0347 2.27114 31.3077 5.07273 31.3077H25.3636C28.1652 31.3077 30.4364 29.0347 30.4364 26.2308V5.92311C30.4364 3.11921 28.1652 0.846191 25.3636 0.846191Z" fill="#2AA8FF"/>
<path fill-rule="evenodd" clip-rule="evenodd" d="M7.75831 11.2075C10.4606 11.1708 12.9228 10.1389 14.7955 8.46143C16.6681 10.1389 19.1303 11.1708 21.8326 11.2075C21.9308 11.7926 21.9818 12.3936 21.9818 13.0065C21.9818 17.704 18.9822 21.7001 14.7955 23.1811C10.6087 21.7001 7.6091 17.704 7.6091 13.0065C7.6091 12.3936 7.66018 11.7926 7.75831 11.2075ZM18.0882 14.5039C18.4183 14.1735 18.4183 13.6377 18.0882 13.3073C17.758 12.9768 17.2227 12.9768 16.8925 13.3073L13.8972 16.3051L12.6984 15.1053C12.3682 14.7749 11.8329 14.7749 11.5028 15.1053C11.1726 15.4358 11.1726 15.9715 11.5028 16.302L13.2993 18.1C13.6295 18.4305 14.1648 18.4305 14.495 18.1L18.0882 14.5039Z" fill="white"/>
</svg>
