<svg width="24" height="24" viewBox="0 0 24 24" fill="none" xmlns="http://www.w3.org/2000/svg">
<path fill-rule="evenodd" clip-rule="evenodd" d="M9.59997 4.7999C6.94901 4.7999 4.79999 6.94894 4.79999 9.5999C4.79999 12.2509 6.94901 14.3999 9.59997 14.3999C12.2509 14.3999 14.4 12.2509 14.4 9.5999C14.4 6.94894 12.2509 4.7999 9.59997 4.7999ZM2.39999 9.5999C2.39999 5.62345 5.62353 2.3999 9.59997 2.3999C13.5764 2.3999 16.7999 5.62345 16.7999 9.5999C16.7999 11.1549 16.307 12.5948 15.4689 13.7717L21.2485 19.5514C21.7171 20.02 21.7171 20.7798 21.2485 21.2484C20.7798 21.7171 20.02 21.7171 19.5514 21.2484L13.7718 15.4688C12.5948 16.307 11.155 16.7999 9.59997 16.7999C5.62353 16.7999 2.39999 13.5764 2.39999 9.5999Z" fill="#9CA3AF"/>
</svg>
